#tb 0: 2/25
#tb 1: 1/22050
0,          0,          0,        1,        6, 0x000a0003
1,          0,          0,   131072,   131072, 0x14c664d6
0,          1,          1,        1,      773, 0x11802a51
0,          2,          2,        1,    12974, 0xc2e466b7
0,          3,          3,        1,    12200, 0x3c0eeb31
0,          4,          4,        1,    13339, 0x91d82488
0,          5,          5,        1,    13940, 0x064c350a
0,          6,          6,        1,    14418, 0x078d2dd2
0,          7,          7,        1,    14539, 0x145167ed
0,          8,          8,        1,     2552, 0xcf2b1db7
1,     131072,     131072,     1764,     1764, 0x30be734d
1,     132836,     132836,     1764,     1764, 0xa4c873a7
1,     134600,     134600,     1764,     1764, 0xd5f17443
1,     136364,     136364,     1764,     1764, 0xd31c7230
1,     138128,     138128,     1764,     1764, 0x181d730f
1,     139892,     139892,     1764,     1764, 0x76f47538
1,     141656,     141656,     1764,     1764, 0x6c51715d
1,     143420,     143420,     1764,     1764, 0x689374f5
